<?xml version="1.0" standalone="no"?>
<!DOCTYPE svg PUBLIC "-//W3C//DTD SVG 20010904//EN"
 "http://www.w3.org/TR/2001/REC-SVG-20010904/DTD/svg10.dtd">
<svg version="1.0" xmlns="http://www.w3.org/2000/svg"
 width="579.000000pt" height="189.000000pt" viewBox="0 0 579.000000 189.000000"
 preserveAspectRatio="xMidYMid meet">

<g transform="translate(0.000000,189.000000) scale(0.100000,-0.100000)"
fill="#256200" stroke="none">
<path d="M135 1491 c-3 -5 11 -18 29 -29 53 -31 99 -103 167 -257 34 -77 82
-175 107 -218 52 -92 140 -190 191 -216 48 -25 129 -41 200 -41 l59 0 11 -47
c17 -75 31 -182 31 -250 0 -55 2 -63 19 -63 14 0 20 10 25 46 3 26 6 60 6 77
0 17 5 58 11 92 l11 62 79 6 c155 10 223 81 349 362 42 94 65 130 103 168 l48
47 -28 0 c-55 0 -188 -41 -279 -85 -115 -56 -189 -127 -240 -231 -33 -66 -38
-86 -45 -186 -5 -62 -14 -140 -22 -173 l-14 -60 -7 40 c-4 22 -14 72 -22 112
-8 39 -16 118 -18 175 -10 332 -227 552 -641 651 -94 23 -124 27 -130 18z
m223 -70 c229 -75 373 -183 457 -342 35 -67 65 -170 65 -224 -1 -25 -9 -14
-49 64 -27 51 -54 98 -61 105 -6 6 7 -23 29 -65 33 -60 81 -177 81 -196 0 -10
-145 -1 -190 13 -43 13 -67 29 -120 82 -79 80 -128 161 -210 348 -33 77 -76
163 -95 192 -43 64 -37 65 93 23z m1083 -324 c-25 -51 -65 -134 -89 -183 -50
-105 -119 -189 -176 -215 -26 -12 -65 -19 -103 -19 l-63 0 20 50 c11 28 29 69
41 92 11 22 17 38 12 35 -4 -3 -19 -28 -33 -56 -29 -58 -42 -66 -33 -18 27
145 118 264 254 333 48 24 185 73 205 74 7 0 -9 -42 -35 -93z"/>
<path d="M730 1066 c0 -2 8 -10 18 -17 15 -13 16 -12 3 4 -13 16 -21 21 -21
13z"/>
<path d="M2100 1357 c-25 -12 -68 -44 -97 -73 -145 -145 -178 -400 -62 -486
36 -27 127 -35 166 -15 43 23 118 109 139 162 12 29 25 45 37 45 11 0 17 8 17
23 -1 51 -27 60 -120 41 -108 -23 -123 -30 -110 -53 12 -23 40 -29 93 -20 35
6 37 5 31 -15 -21 -72 -96 -156 -138 -156 -61 0 -97 104 -78 226 22 138 128
289 221 314 67 18 93 -19 51 -73 -25 -31 -25 -39 -1 -61 18 -16 20 -15 45 14
36 44 36 101 0 129 -37 29 -132 28 -194 -2z"/>
<path d="M2501 1360 c-41 -11 -85 -27 -98 -35 -22 -15 -22 -17 -8 -45 22 -42
29 -43 86 -15 28 15 53 24 55 22 7 -7 -37 -127 -110 -295 -36 -85 -66 -160
-66 -167 0 -18 61 -68 70 -58 4 4 13 31 20 58 7 28 29 89 48 138 28 72 38 87
56 87 18 0 26 -16 58 -118 21 -65 47 -130 58 -145 26 -32 58 -35 89 -6 l23 21
-25 27 c-26 26 -100 158 -111 197 -6 18 0 23 39 34 94 26 165 108 165 189 0
36 -38 92 -75 111 -48 23 -187 23 -274 0z m294 -61 c45 -45 17 -122 -58 -158
-45 -22 -164 -48 -173 -38 -3 3 18 53 48 112 l53 106 58 -4 c33 -2 64 -10 72
-18z"/>
<path d="M3093 1373 c-109 -4 -113 -4 -113 -26 0 -27 10 -41 33 -50 21 -8 18
-30 -13 -121 -14 -42 -22 -52 -48 -60 -36 -10 -41 -30 -12 -46 18 -10 17 -14
-25 -118 -25 -59 -45 -114 -45 -123 0 -8 13 -28 29 -43 27 -26 30 -27 92 -17
35 6 106 11 157 11 l94 0 -7 33 c-4 17 -11 36 -16 41 -7 8 -116 -2 -227 -21
-32 -5 -33 -5 -26 23 4 16 21 67 39 114 36 95 42 99 153 101 61 1 62 2 62 30
0 39 -29 53 -91 45 -27 -4 -49 -4 -49 -1 0 4 15 40 34 80 39 85 39 85 163 88
87 2 94 7 67 45 -13 19 -23 22 -77 20 -34 -1 -113 -4 -174 -5z"/>
<path d="M3558 1373 c-117 -4 -118 -4 -118 -27 0 -15 11 -32 27 -44 l27 -19
-19 -68 c-19 -73 -43 -105 -75 -105 -25 0 -26 -14 -1 -37 19 -18 18 -20 -25
-128 -48 -119 -48 -139 -2 -169 20 -13 35 -14 83 -6 33 5 102 10 153 10 89 0
92 1 92 23 0 13 -6 31 -13 41 -13 17 -20 18 -108 7 -52 -7 -108 -15 -126 -18
l-32 -5 11 38 c5 22 23 74 40 116 29 77 29 77 71 83 23 3 64 6 92 8 58 2 70
22 35 57 -19 19 -29 21 -76 15 -30 -3 -54 -4 -54 -1 0 3 17 40 37 81 24 49 45
78 58 81 11 3 57 6 102 7 46 1 83 5 83 9 0 4 -5 19 -12 33 -10 23 -16 25 -72
23 -34 -1 -114 -4 -178 -5z"/>
<path d="M3980 1370 c0 -6 -24 -61 -54 -123 -70 -145 -136 -328 -143 -393 -5
-45 -3 -53 18 -68 39 -27 46 -20 52 57 9 115 98 414 128 433 5 3 9 -20 9 -53
0 -144 44 -407 72 -435 11 -11 33 -18 57 -18 l38 0 6 63 c17 171 113 435 177
484 13 10 13 13 -3 31 -28 31 -55 34 -72 9 -27 -42 -57 -134 -100 -300 l-42
-167 -13 42 c-6 24 -14 127 -17 230 l-5 187 -46 15 c-53 19 -62 19 -62 6z"/>
<path d="M4767 1373 c-81 -3 -109 -7 -113 -18 -8 -21 13 -52 41 -59 29 -7 28
-16 -9 -121 -18 -51 -25 -61 -53 -69 -38 -10 -41 -19 -12 -39 20 -15 20 -16
-25 -127 -42 -103 -44 -114 -30 -134 8 -13 26 -28 39 -34 30 -14 26 -20 55 95
22 90 55 174 73 185 6 3 48 10 94 13 77 7 83 9 83 30 0 37 -24 48 -90 42 -33
-3 -60 -4 -60 -2 0 2 18 41 39 88 l39 84 84 7 c46 4 88 7 93 6 23 -5 25 2 10
30 -15 29 -17 30 -83 28 -37 -1 -116 -4 -175 -5z"/>
<path d="M5073 1373 c-13 -2 -23 -7 -23 -10 0 -3 13 -33 29 -67 15 -34 43
-107 61 -162 l34 -102 -38 -103 c-21 -57 -40 -111 -43 -120 -3 -12 6 -19 41
-28 63 -16 64 -16 71 32 4 23 16 83 27 132 23 99 42 132 183 305 69 86 75 96
59 107 -32 23 -48 14 -79 -44 -44 -84 -142 -223 -158 -223 -7 0 -44 145 -58
223 l-11 67 -37 -1 c-20 -1 -46 -4 -58 -6z"/>
<path d="M4470 1328 c-54 -88 -141 -361 -143 -450 -1 -51 2 -61 28 -88 16 -16
32 -30 37 -30 4 0 8 19 8 43 0 96 91 392 145 472 31 44 31 50 3 69 -34 24 -56
19 -78 -16z"/>
<path d="M1870 544 c0 -47 4 -73 10 -69 6 3 10 19 10 36 0 24 4 29 26 29 14 0
23 4 19 10 -3 6 -15 10 -26 10 -12 0 -19 7 -19 20 0 16 7 20 30 20 17 0 30 5
30 10 0 6 -18 10 -40 10 l-40 0 0 -76z"/>
<path d="M2113 610 c-26 -11 -43 -40 -43 -74 0 -27 41 -66 70 -66 34 0 70 39
70 75 0 24 -7 39 -26 54 -29 23 -38 24 -71 11z m62 -26 c26 -26 16 -77 -17
-88 -52 -18 -89 44 -51 86 20 22 46 23 68 2z"/>
<path d="M2350 544 c0 -47 4 -73 10 -69 6 3 10 18 10 33 l0 27 22 -34 c23 -35
38 -28 18 9 -9 16 -8 24 5 36 32 33 8 74 -44 74 -19 0 -21 -6 -21 -76z m55 31
c0 -11 -8 -21 -17 -23 -14 -3 -18 3 -18 23 0 20 4 26 18 23 9 -2 17 -12 17
-23z"/>
<path d="M2720 610 c0 -5 9 -10 20 -10 18 0 20 -7 20 -66 0 -41 4 -63 10 -59
6 3 10 33 10 66 0 46 3 59 15 59 8 0 15 5 15 10 0 6 -20 10 -45 10 -25 0 -45
-4 -45 -10z"/>
<path d="M2940 545 c0 -48 4 -74 10 -70 6 3 10 19 10 36 0 26 3 29 30 29 27 0
30 -3 30 -29 0 -17 5 -33 10 -36 6 -4 10 22 10 70 0 48 -4 74 -10 70 -5 -3
-10 -17 -10 -31 0 -20 -5 -24 -30 -24 -25 0 -30 4 -30 24 0 14 -4 28 -10 31
-6 4 -10 -22 -10 -70z"/>
<path d="M3184 606 c-3 -7 -4 -40 -2 -72 l3 -59 38 -3 c21 -2 37 1 37 7 0 6
-13 11 -30 11 -25 0 -30 4 -30 25 0 20 5 25 25 25 14 0 25 5 25 10 0 6 -11 10
-25 10 -18 0 -25 5 -25 20 0 16 7 20 30 20 17 0 30 5 30 10 0 15 -70 12 -76
-4z"/>
<path d="M3570 544 c0 -47 4 -73 10 -69 6 3 10 19 10 36 0 24 4 29 26 29 14 0
23 4 19 10 -3 6 -15 10 -26 10 -12 0 -19 7 -19 20 0 16 7 20 31 20 17 0 28 4
24 10 -3 6 -22 10 -41 10 l-34 0 0 -76z"/>
<path d="M3770 565 c0 -42 5 -60 20 -75 24 -24 38 -25 68 -4 19 13 22 24 22
75 0 38 -4 58 -10 54 -5 -3 -10 -30 -10 -60 0 -45 -3 -55 -20 -60 -34 -11 -50
12 -50 71 0 30 -4 54 -10 54 -5 0 -10 -25 -10 -55z"/>
<path d="M4010 610 c0 -5 7 -10 15 -10 11 0 15 -13 15 -52 0 -29 5 -60 10 -68
7 -11 10 5 10 53 0 60 2 67 20 67 11 0 20 5 20 10 0 6 -20 10 -45 10 -25 0
-45 -4 -45 -10z"/>
<path d="M4230 562 c0 -44 5 -63 18 -75 46 -42 92 -3 92 78 0 30 -4 55 -10 55
-5 0 -10 -24 -10 -54 0 -59 -16 -82 -50 -71 -17 5 -20 15 -20 60 0 30 -4 57
-10 60 -6 4 -10 -16 -10 -53z"/>
<path d="M4480 544 c0 -47 4 -73 10 -69 6 3 10 18 10 33 l0 27 22 -34 c23 -35
38 -28 18 9 -9 16 -8 24 5 36 32 33 8 74 -44 74 -19 0 -21 -6 -21 -76z m57 40
c3 -9 0 -20 -8 -25 -23 -14 -29 -11 -29 16 0 28 27 35 37 9z"/>
<path d="M4690 545 l0 -75 40 0 c22 0 40 5 40 10 0 6 -13 10 -30 10 -25 0 -30
4 -30 25 0 20 5 25 26 25 14 0 23 4 19 10 -3 6 -15 10 -26 10 -12 0 -19 7 -19
20 0 16 7 20 31 20 17 0 28 4 24 10 -3 6 -22 10 -41 10 l-34 0 0 -75z"/>
</g>
</svg>
